<svg width="100" height="100" viewBox="0 0 100 100" fill="none" xmlns="http://www.w3.org/2000/svg">
<path d="M50 100C22.3858 100 0 77.6142 0 50C0 22.3858 22.3858 0 50 0C77.6142 0 100 22.3858 100 50C100 77.6142 77.6142 100 50 100Z" fill="#1E2158"/>
<path d="M26.4894 70.9687H73.5102C75.9667 70.9687 77.9581 68.9773 77.9581 66.5208V33.4792C77.9581 31.0226 75.9667 29.0312 73.5102 29.0312H26.4894C24.0329 29.0312 22.0415 31.0226 22.0415 33.4792V66.5208C22.0415 68.9773 24.0329 70.9687 26.4894 70.9687Z" fill="#E0E0E0"/>
<path d="M52.5415 70.9687H73.5102C75.9667 70.9687 77.9581 68.9773 77.9581 66.5208V33.4792C77.9581 31.0226 75.9667 29.0312 73.5102 29.0312H26.4894C24.0329 29.0312 22.0415 31.0226 22.0415 33.4792L52.5415 70.9687Z" fill="#D9D9D9"/>
<path d="M28.0718 70.9686H73.5104C75.9669 70.9686 77.9583 68.9772 77.9583 66.5207V34.1145L28.0718 70.9686Z" fill="#EEEEEE"/>
<path d="M52.2173 70.9686H73.5101C75.9666 70.9686 77.958 68.9772 77.958 66.5207V34.1145L43.3545 59.6786L52.2173 70.9686Z" fill="#E0E0E0"/>
<path d="M73.5102 31.5729H26.4894C24.0329 31.5729 22.0415 31.0227 22.0415 33.4792V66.5208C22.0415 68.9774 24.0329 70.9688 26.4894 70.9688H28.3957V34.75H71.604V70.9688H73.5102C75.9667 70.9688 77.9581 68.9774 77.9581 66.5208V33.4792C77.9581 31.0227 75.9667 31.5729 73.5102 31.5729Z" fill="#CA3737"/>
<path d="M73.5102 29.0312H49.9998H26.4894C24.0329 29.0312 22.0415 30.9832 22.0415 33.4792C22.0415 35.0118 23.9706 36.3487 23.9706 36.3487L49.9998 54.7732L76.029 36.35C76.029 36.35 77.9581 35.0118 77.9581 33.4804C77.9581 30.9832 75.9667 29.0312 73.5102 29.0312Z" fill="#F5F5F5"/>
<path d="M74.4583 29.1355L49.9998 46.1875L25.5414 29.1355C23.5411 29.5638 22.0415 31.315 22.0415 33.4792C22.0415 35.0118 23.9706 36.3487 23.9706 36.3487L49.9998 54.7733L76.029 36.35C76.029 36.35 77.9581 35.0118 77.9581 33.4805C77.9581 31.315 76.4585 29.5638 74.4583 29.1355Z" fill="#E84F4B"/>
<path d="M82.4064 63.9791C82.4064 67.8233 79.2611 70.9687 75.4168 70.9687C71.5726 70.9687 68.4272 67.8233 68.4272 63.9791C68.4272 60.1348 71.5726 56.9895 75.4168 56.9895C79.2611 56.9895 82.4064 60.1348 82.4064 63.9791Z" fill="#43A047"/>
<path d="M78.5622 60.7639L74.5781 64.6781L72.691 62.7909L71.2231 64.3286L74.5781 67.6836L80.03 62.2317L78.5622 60.7639Z" fill="#DCEDC8"/>
</svg>
